<svg width="26" height="26" viewBox="0 0 26 26" fill="none" xmlns="http://www.w3.org/2000/svg">
<path d="M4.7793 25.7207C1.92188 25.7207 0.486328 24.3125 0.486328 21.4961V4.78906C0.486328 1.97266 1.92188 0.550781 4.7793 0.550781H21.3633C24.2344 0.550781 25.6562 1.97266 25.6562 4.78906V21.4961C25.6562 24.3125 24.2344 25.7207 21.3633 25.7207H4.7793ZM5.6543 14.3047H11.5742C11.834 14.3047 12.0117 14.4961 12.0117 14.7695L12.0254 20.5938C12.0254 21.8652 13.3516 21.9883 13.7754 21.0723L20.0371 7.74219C20.543 6.64844 19.6133 5.70508 18.5059 6.22461L5.18945 12.5547C4.28711 12.9785 4.42383 14.3047 5.6543 14.3047Z" fill="#007AFF"/>
</svg>
