<svg width="1024" height="1024" viewBox="0 0 1024 1024" fill="none" xmlns="http://www.w3.org/2000/svg">
<rect width="1024" height="1024" fill="url(#paint0_linear_389_512)"/>
<g clip-path="url(#clip0_389_512)">
<path d="M450.481 574.533C409.366 610.239 386.116 655.761 386.116 697.106C386.116 709.501 388.595 721.704 394.594 732.466H215.809C180.844 732.466 168.504 718.046 168.504 693.851C168.504 628.206 239.527 547.651 348.879 547.651C388.267 547.651 422.673 558.054 450.481 574.533ZM435.374 416.306C435.374 469.391 395.341 510.716 348.879 510.716C302.673 510.716 262.44 469.391 262.44 416.814C262.44 364.486 302.785 324.407 348.879 324.407C395.229 324.407 435.374 363.667 435.374 416.306Z" fill="white" fill-opacity="0.85"/>
<path d="M631.552 505.19C684.994 505.19 730.899 457.916 730.899 396.768C730.899 336.433 684.879 291.169 631.552 291.169C578.479 291.169 532.461 337.45 532.461 397.277C532.461 457.916 578.367 505.19 631.552 505.19ZM479.809 732.409H783.551C823.967 732.409 838.878 719.732 838.878 697.106C838.878 634.434 758.766 548.215 631.552 548.215C504.592 548.215 424.482 634.434 424.482 697.106C424.482 719.732 439.393 732.409 479.809 732.409Z" fill="white" fill-opacity="0.85"/>
</g>
<defs>
<linearGradient id="paint0_linear_389_512" x1="512" y1="0" x2="512" y2="1024" gradientUnits="userSpaceOnUse">
<stop stop-color="#007AFF"/>
<stop offset="1" stop-color="#5AA9FF"/>
</linearGradient>
<clipPath id="clip0_389_512">
<rect width="735.049" height="517.069" fill="white" transform="translate(141.94 253.465)"/>
</clipPath>
</defs>
</svg>
