<svg width="11" height="15" viewBox="0 0 11 15" fill="none" xmlns="http://www.w3.org/2000/svg">
<path d="M5.76758 0.464844C5.91992 0.464844 6.06348 0.494141 6.19824 0.552734C6.33301 0.611328 6.45898 0.702148 6.57617 0.825195L10.4346 4.5166C10.5342 4.61621 10.6162 4.72754 10.6807 4.85059C10.7451 4.97363 10.7773 5.11133 10.7773 5.26367C10.7773 5.55664 10.6748 5.7998 10.4697 5.99316C10.2705 6.18652 10.0361 6.2832 9.7666 6.2832C9.6377 6.2832 9.50879 6.25977 9.37988 6.21289C9.25684 6.16602 9.13965 6.09277 9.02832 5.99316L5.76758 2.80273L2.51562 5.99316C2.4043 6.09863 2.28418 6.1748 2.15527 6.22168C2.02637 6.2627 1.90039 6.2832 1.77734 6.2832C1.50781 6.2832 1.27051 6.18652 1.06543 5.99316C0.860352 5.7998 0.757812 5.55664 0.757812 5.26367C0.757812 5.11133 0.790039 4.97363 0.854492 4.85059C0.918945 4.72754 1.00098 4.61621 1.10059 4.5166L4.96777 0.825195C5.08496 0.702148 5.20801 0.611328 5.33691 0.552734C5.47168 0.494141 5.61523 0.464844 5.76758 0.464844ZM5.76758 14.8438C5.61523 14.8438 5.47168 14.8145 5.33691 14.7559C5.20801 14.6973 5.08496 14.6064 4.96777 14.4834L1.10059 10.792C1.00098 10.6924 0.918945 10.5811 0.854492 10.458C0.790039 10.335 0.757812 10.1973 0.757812 10.0449C0.757812 9.75195 0.860352 9.50879 1.06543 9.31543C1.27051 9.12207 1.50781 9.02539 1.77734 9.02539C1.90039 9.02539 2.02637 9.04883 2.15527 9.0957C2.28418 9.13672 2.4043 9.20996 2.51562 9.31543L5.76758 12.5059L9.02832 9.31543C9.13965 9.20996 9.25684 9.13672 9.37988 9.0957C9.50879 9.04883 9.6377 9.02539 9.7666 9.02539C10.0361 9.02539 10.2705 9.12207 10.4697 9.31543C10.6748 9.50879 10.7773 9.75195 10.7773 10.0449C10.7773 10.1973 10.7451 10.335 10.6807 10.458C10.6162 10.5811 10.5342 10.6924 10.4346 10.792L6.57617 14.4834C6.45898 14.6064 6.33301 14.6973 6.19824 14.7559C6.06348 14.8145 5.91992 14.8438 5.76758 14.8438Z" fill="#007AFF"/>
</svg>
